<svg width="127" height="138" viewBox="0 0 127 138" fill="none" xmlns="http://www.w3.org/2000/svg">
<path d="M127 4.24788C127 1.9099 125.113 0.00658586 122.782 0.00658586C122.244 0.00658586 121.727 0.11196 121.255 0.296364V0.283192L120.987 0.395151L84.2191 15.8917H42.7809L5.91505 0.362222L5.75784 0.296364C5.27966 0.11196 4.76217 0 4.21849 0C1.88653 0 0 1.89673 0 4.24129C0 4.41252 0.0131009 4.58376 0.0327522 4.75499H0.0262018L0.0720549 5.02501L8.66624 57.1191L0.386476 85.3988L0.29477 85.7149C0.209614 86.0574 0.157211 86.4064 0.157211 86.7752C0.157211 88.3822 1.04807 89.7784 2.35816 90.4962L2.53502 90.5884L29.4049 104.28C40.3114 110.86 44.7395 118.559 53.1175 128.2L60.1462 136.321L60.4671 136.689C61.2336 137.486 62.3013 137.993 63.4935 137.993C64.6856 137.993 65.8516 137.447 66.6246 136.584L66.7818 136.406L73.889 128.2C82.267 118.559 86.6951 110.86 97.6016 104.28L124.491 90.5753L124.642 90.4962C125.952 89.7718 126.843 88.3756 126.843 86.7621C126.843 86.3669 126.784 85.9849 126.686 85.6227L126.659 85.5305L126.646 85.4844L126.6 85.3263L118.334 57.0994L126.948 4.90646L126.974 4.7484H126.954C126.974 4.57717 126.987 4.41252 126.987 4.2347L127 4.24788ZM114.443 14.9499L109.641 44.1318L93.953 23.6235L114.449 14.9499H114.443ZM44.3138 26.6991H82.6928L101.866 51.8965H25.1472L44.3203 26.6991H44.3138ZM63.5066 93.3874L63.4869 93.3743V93.4072L63.3886 93.4928L27.7935 62.8159H99.2196L63.6245 93.4928L63.5262 93.4072V93.3743L63.5066 93.3874ZM33.0601 23.6301L17.3718 44.1384L12.5703 14.9565L33.0666 23.6301H33.0601ZM12.4982 82.4944L16.8936 68.9012L40.8355 90.2987L47.4449 96.2062L12.4982 82.501V82.4944ZM63.5066 120.962L50.0061 104.702L63.4869 106.645H63.5066H63.5262L77.007 104.702L63.5066 120.962ZM79.5617 96.1996L86.1711 90.2921L110.113 68.8946L114.508 82.4878L79.5617 96.193V96.1996Z" fill="white"/>
</svg>
