<svg width="197" height="33" viewBox="0 0 197 33" fill="none" xmlns="http://www.w3.org/2000/svg">
<path d="M40.9635 22.0268L42.7681 18.9553C44.0455 19.9124 46.4961 20.7581 48.5532 20.7581C49.8677 20.7581 50.239 20.4836 50.239 20.1127C50.239 19.5637 49.177 19.5043 47.7883 19.3263C45.1817 19.0147 41.4165 18.4434 41.4165 15.0381C41.4165 12.3376 44.0603 10.6684 48.4344 10.6684C50.5732 10.6684 53.4323 11.2767 55.2592 12.5083L53.4769 15.4684C51.947 14.4669 49.6523 13.9772 47.9888 13.9772C47.3056 13.9772 46.912 14.133 46.912 14.504C46.912 15.053 48.026 15.2088 49.4592 15.4239C52.0287 15.8171 55.6528 16.3661 55.6528 19.5563C55.6528 22.3977 52.8902 24.156 48.6943 24.156C45.3822 24.156 42.5602 23.2732 40.971 22.0194L40.9635 22.0268Z" fill="black"/>
<path d="M57.0638 10.8613H62.2399V15.1346H67.572V10.8613H72.7482V23.926H67.572V19.2818H62.2399V23.926H57.0638V10.8613Z" fill="black"/>
<path d="M79.6472 10.8613H85.5288L91.7075 23.926H85.967L85.3432 22.3384H79.8551L79.2313 23.926H73.4834L79.662 10.8613H79.6472ZM84.0584 19.0666L82.588 15.3275L81.1176 19.0666H84.0584Z" fill="black"/>
<path d="M92.4353 10.8613H102.81C105.944 10.8613 107.748 12.6864 107.748 15.4017C107.748 18.117 105.944 19.9272 102.81 19.9272H97.6114V23.926H92.4353V10.8613ZM101.726 16.2697C102.312 16.2697 102.706 15.973 102.706 15.424C102.706 14.9343 102.312 14.6227 101.726 14.6227H97.6114V16.2697H101.726Z" fill="black"/>
<path d="M109.315 10.8613H123.158V14.4224H114.491V15.7355H122.824V18.9256H114.491V20.3575H123.158V23.9186H109.315V10.8539V10.8613Z" fill="black"/>
<path d="M124.784 22.0268L126.589 18.9553C127.866 19.9124 130.317 20.7581 132.374 20.7581C133.688 20.7581 134.06 20.4836 134.06 20.1127C134.06 19.5637 132.998 19.5043 131.609 19.3263C129.002 19.0147 125.237 18.4434 125.237 15.0381C125.237 12.3376 127.881 10.6684 132.255 10.6684C134.394 10.6684 137.253 11.2767 139.08 12.5083L137.298 15.4684C135.768 14.4669 133.473 13.9772 131.81 13.9772C131.126 13.9772 130.733 14.133 130.733 14.504C130.733 15.053 131.847 15.2088 133.28 15.4239C135.85 15.8171 139.474 16.3661 139.474 19.5563C139.474 22.3977 136.711 24.156 132.515 24.156C129.203 24.156 126.381 23.2732 124.792 22.0194L124.784 22.0268Z" fill="black"/>
<path d="M140.885 10.8613H146.061V15.1346H151.393V10.8613H156.569V23.926H151.393V19.2818H146.061V23.926H140.885V10.8613Z" fill="black"/>
<path d="M158.96 10.8613H164.136V23.926H158.96V10.8613Z" fill="black"/>
<path d="M166.528 10.8613H180.073V14.4224H171.704V15.7355H179.739V18.9256H171.704V23.9186H166.528V10.8539V10.8613Z" fill="black"/>
<path d="M186.727 15.0159H182.123V10.8613H196.515V15.0159H191.926V23.926H186.727V15.0159Z" fill="black"/>
<path d="M29.8315 0.986708C29.8315 0.437707 29.3859 0 28.8438 0C28.7175 0 28.5987 0.0222541 28.4873 0.0667677L28.4279 0.0890236L19.7911 3.70947H10.0552L1.38872 0.0815974L1.35159 0.0667677C1.24019 0.0222541 1.11395 0 0.987699 0C0.438152 0 0 0.445126 0 0.986708C0 1.0238 0 1.06832 0.00742631 1.10541V1.16478L2.03481 13.3318L0.0891157 19.9347L0.0668368 20.0089C0.0445579 20.0905 0.0371316 20.1721 0.0371316 20.2537C0.0371316 20.632 0.245068 20.9585 0.556973 21.1217L0.601531 21.144L6.9139 24.3415C9.47597 25.8772 10.5157 27.6726 12.4836 29.928L14.1323 31.8198L14.2065 31.9088C14.3848 32.0943 14.6373 32.213 14.9195 32.213C15.2017 32.213 15.4764 32.0869 15.6547 31.8866L15.6918 31.842L17.3627 29.928C19.3307 27.6726 20.3704 25.8772 22.9324 24.3415L29.2522 21.144L29.2894 21.1291C29.6013 20.9585 29.8092 20.632 29.8092 20.2611C29.8092 20.1721 29.7944 20.083 29.7721 19.994V19.9718L29.7647 19.9272L27.819 13.3392L29.8463 1.14993V1.11284C29.8463 1.07575 29.8538 1.03123 29.8538 0.994134L29.8315 0.986708ZM26.8832 3.48688L25.7544 10.3049L22.071 5.51969L26.8907 3.49431L26.8832 3.48688ZM10.3968 6.22447H19.4198L23.9276 12.1077H5.89649L10.4043 6.22447H10.3968ZM14.912 21.8042L14.8898 21.8265L6.5203 14.6598H23.3038L14.9343 21.8265L14.912 21.8042ZM7.75307 5.51226L4.06962 10.2975L2.94082 3.47948L7.76049 5.50483L7.75307 5.51226ZM2.92597 19.2595L3.95822 16.0842L9.58737 21.0772L11.1395 22.4571L2.92597 19.2595ZM14.912 28.2365L11.741 24.438L14.912 24.8905L18.0831 24.438L14.912 28.2365ZM18.6846 22.4571L20.2367 21.0772L25.8658 16.0842L26.8981 19.2595L18.6846 22.4571Z" fill="black"/>
</svg>
